<svg width="28" height="20" viewBox="0 0 28 20" fill="none" xmlns="http://www.w3.org/2000/svg">
<path fill-rule="evenodd" clip-rule="evenodd" d="M26.1098 0.480957C26.4931 0.480957 26.8121 0.60829 27.0668 0.862957C27.3214 1.11762 27.4488 1.43662 27.4488 1.81996C27.4488 2.19662 27.3198 2.51396 27.0618 2.77196L10.9988 18.835C10.7408 19.093 10.4234 19.222 10.0468 19.222C9.67009 19.222 9.35276 19.093 9.09476 18.835L1.06376 10.804C0.805758 10.546 0.676758 10.2286 0.676758 9.85196C0.676758 9.46862 0.804091 9.14962 1.05876 8.89496C1.31342 8.64029 1.63242 8.51296 2.01576 8.51296C2.39242 8.51296 2.70976 8.64196 2.96776 8.89996L10.0478 15.99L25.1588 0.868957C25.4168 0.610957 25.7341 0.481957 26.1108 0.481957L26.1098 0.480957Z" fill="black"/>
</svg>
