<svg width="24" height="24" viewBox="0 0 24 24" fill="none" xmlns="http://www.w3.org/2000/svg">
<path d="M12 16.5C13.245 16.5 14.3063 16.0613 15.1838 15.1838C16.0613 14.3063 16.5 13.245 16.5 12C16.5 10.755 16.0613 9.69375 15.1838 8.81625C14.3063 7.93875 13.245 7.5 12 7.5C10.755 7.5 9.69375 7.93875 8.81625 8.81625C7.93875 9.69375 7.5 10.755 7.5 12C7.5 13.245 7.93875 14.3063 8.81625 15.1838C9.69375 16.0613 10.755 16.5 12 16.5ZM12 21C10.755 21 9.585 20.7638 8.49 20.2913C7.395 19.8188 6.4425 19.1775 5.6325 18.3675C4.8225 17.5575 4.18125 16.605 3.70875 15.51C3.23625 14.415 3 13.245 3 12C3 10.755 3.23625 9.585 3.70875 8.49C4.18125 7.395 4.8225 6.4425 5.6325 5.6325C6.4425 4.8225 7.395 4.18125 8.49 3.70875C9.585 3.23625 10.755 3 12 3C13.245 3 14.415 3.23625 15.51 3.70875C16.605 4.18125 17.5575 4.8225 18.3675 5.6325C19.1775 6.4425 19.8188 7.395 20.2913 8.49C20.7638 9.585 21 10.755 21 12C21 13.245 20.7638 14.415 20.2913 15.51C19.8188 16.605 19.1775 17.5575 18.3675 18.3675C17.5575 19.1775 16.605 19.8188 15.51 20.2913C14.415 20.7638 13.245 21 12 21Z" fill="black"/>
</svg>
