<svg width="28" height="29" viewBox="0 0 28 29" fill="none" xmlns="http://www.w3.org/2000/svg">
<path fill-rule="evenodd" clip-rule="evenodd" d="M11.3858 0.127H16.7398C17.8484 0.127 18.7948 0.519333 19.5788 1.304C20.3628 2.08867 20.7551 3.035 20.7558 4.143V5.482H26.1098C26.4791 5.482 26.7944 5.61267 27.0558 5.874C27.3171 6.13533 27.4478 6.45067 27.4478 6.82C27.4478 7.18933 27.3171 7.50467 27.0558 7.766C26.7944 8.02733 26.4791 8.158 26.1098 8.158H24.7708V24.221C24.7708 25.3297 24.3784 26.276 23.5938 27.06C22.8091 27.844 21.8628 28.2363 20.7548 28.237H7.36876C6.26009 28.237 5.31376 27.8447 4.52976 27.06C3.74576 26.2753 3.35376 25.329 3.35376 24.221V8.158H2.01476C1.64542 8.158 1.33009 8.02733 1.06876 7.766C0.807424 7.50467 0.676758 7.18933 0.676758 6.82C0.676758 6.45067 0.807424 6.13533 1.06876 5.874C1.33009 5.61267 1.64542 5.482 2.01476 5.482H7.36876V4.143C7.36876 3.03433 7.76109 2.088 8.54576 1.304C9.33042 0.52 10.2768 0.127667 11.3848 0.127H11.3858ZM22.0938 24.221V8.158H6.03076V24.221C6.03076 24.5903 6.16142 24.9057 6.42276 25.167C6.68409 25.4283 6.99942 25.559 7.36876 25.559H20.7548C21.1241 25.559 21.4394 25.4283 21.7008 25.167C21.9621 24.9057 22.0928 24.5903 22.0928 24.221H22.0938ZM11.3858 2.804H16.7398H16.7408C17.1101 2.804 17.4254 2.93467 17.6868 3.196C17.9481 3.45733 18.0788 3.77267 18.0788 4.142V5.481H10.0478V4.142C10.0478 3.77267 10.1784 3.45733 10.4398 3.196C10.7011 2.93467 11.0164 2.804 11.3858 2.804Z" fill="black"/>
</svg>
