<svg width="25" height="28" viewBox="0 0 25 28" fill="none" xmlns="http://www.w3.org/2000/svg">
<path fill-rule="evenodd" clip-rule="evenodd" d="M12.016 13.797C8.32995 13.797 5.34295 10.809 5.34295 7.124C5.34295 3.439 8.33095 0.451004 12.016 0.451004C15.702 0.451004 18.689 3.439 18.689 7.124C18.689 10.809 15.701 13.797 12.016 13.797ZM24.027 25.808C24.027 26.545 23.429 27.143 22.692 27.143C21.955 27.143 21.357 26.545 21.357 25.808V23.139C21.357 20.928 19.564 19.135 17.353 19.135H6.67595C4.46495 19.135 2.67195 20.928 2.67195 23.139V25.808C2.67195 26.545 2.07395 27.143 1.33695 27.143C0.599953 27.143 0.00195312 26.545 0.00195312 25.808V23.139C0.00195312 19.453 2.98995 16.466 6.67495 16.466H17.352C21.038 16.466 24.025 19.454 24.025 23.139V25.808H24.027ZM16.02 7.123C16.02 9.334 14.227 11.127 12.016 11.127C9.80495 11.127 8.01195 9.334 8.01195 7.123C8.01195 4.912 9.80495 3.119 12.016 3.119C14.227 3.119 16.02 4.912 16.02 7.123Z" fill="black"/>
</svg>
